<svg xmlns="http://www.w3.org/2000/svg" viewBox="0 0 16.11 21.68"><defs><style>.cls-1{fill:#3a519f;}</style></defs><title>顶部</title><g id="图层_2" data-name="图层 2"><g id="图层_1-2" data-name="图层 1"><path class="cls-1" d="M15.71,9.21h0L9.46,4.27A1.85,1.85,0,0,0,7,4.27L.42,9.19l0,0a1.17,1.17,0,0,0-.38.86,1.18,1.18,0,0,0,.36.85,1.11,1.11,0,0,0,.82.32A1.31,1.31,0,0,0,2,10.94l5.1-3.69V20.51a1.17,1.17,0,1,0,2.33,0V7.27l4.76,3.66a1.26,1.26,0,0,0,.8.32,1.17,1.17,0,0,0,1.17-1.17,1.12,1.12,0,0,0-.4-.87Z"/><path class="cls-1" d="M14.15,0H2.33a1.17,1.17,0,0,0,0,2.33H14.15a1.17,1.17,0,0,0,0-2.33Z"/></g></g></svg>